<svg xmlns="http://www.w3.org/2000/svg" width="128" height="128" viewBox="0 0 128 128">
  <!-- Background -->
  <rect x="4" y="4" width="120" height="120" rx="16" ry="16" fill="#3498db" />
  
  <!-- Document -->
  <rect x="24" y="16" width="80" height="96" rx="4" ry="4" fill="#ecf0f1" />
  
  <!-- Text lines -->
  <rect x="32" y="32" width="64" height="4" rx="2" ry="2" fill="#7f8c8d" />
  <rect x="32" y="44" width="64" height="4" rx="2" ry="2" fill="#7f8c8d" />
  <rect x="32" y="56" width="48" height="4" rx="2" ry="2" fill="#7f8c8d" />
  
  <!-- Highlighted word -->
  <rect x="32" y="68" width="24" height="8" rx="4" ry="4" fill="#f1c40f" />
  
  <!-- Sound waves -->
  <path d="M88,64 C94,58 94,70 88,64 M96,64 C106,54 106,74 96,64 M104,64 C118,50 118,78 104,64" 
        stroke="#2980b9" stroke-width="3" fill="none" stroke-linecap="round" />
  
  <!-- Chat bubble -->
  <path d="M80,88 L80,76 C80,72 84,68 88,68 L104,68 C108,68 112,72 112,76 L112,88 C112,92 108,96 104,96 L96,96 L92,100 L88,96 L88,96 C84,96 80,92 80,88 Z" 
        fill="#2ecc71" />
  
  <!-- AI symbol -->
  <text x="96" y="86" font-family="Arial" font-size="14" font-weight="bold" text-anchor="middle" fill="#ffffff">AI</text>
</svg>